:SAMPLES-PER-SECOND 30
:FULLY-SPECIFIED
:DEGREES
130
root  3.996377855 38.43266645 1.881617824 -18.93499756 -74.91999817 18.73100281
lowerback  13.74120045 1.091549993 -1.209529996
upperback  4.006169796 1.143519998 0.1713970006
thorax  -3.509219885 0.5086500049 0.677241981
lowerneck  -4.175730228 10.1814003 -1.578729987
upperneck  3.636159897 13.94410038 -5.778329849
head  2.186909914 6.770189762 -1.096959949
lclavicle  0 -9.442270133e-015 7.951389973e-016
lhumerus  -5.275680065 -10.32670021 78.11650085
lradius  2.731628589e-031 -2.237643691e-031 140.677002
lwrist  -7.062250077e-031 -0 4.104680061
lhand  -1.496451383e-031 -27.76390076 20.11240005
lfingers  90 7.125020027 -90
lthumb  89.89689403 5.08795885 91.16245106
rclavicle  0 -9.442270133e-015 7.951389973e-016
rhumerus  -34.32849884 28.59910011 -85.34290314
rradius  -1.737414296e-031 3.07412355e-031 119.473999
rwrist  3.531125038e-031 -3.531125038e-031 -2.719569921
rhand  -7.920061211e-032 -33.2840004 9.303460121
rfingers  -90 -7.125020027 -90
rthumb  -92.93752616 -24.25625642 -97.11982154
rfemur  -10.97239971 27.16469955 0.2663890123
rtibia  -0 0 54.8852005
rfoot  -4.61351517e-032 -16.91570091 -2.995379925
rtoes  5.373923086 19.29304026 -105.8922705
lfemur  -25.96899986 1.873839974 0.796002984
ltibia  -0 0 57.66559982
lfoot  5.542773834e-032 -5.486299992 -1.028229952
ltoes  -4.250644065 -19.5611806 -102.515957
131
root  3.87062238 38.27422135 2.008888853 -18.88999939 -74.46099854 18.44000244
lowerback  13.59469986 0.8267530203 -1.358940005
upperback  3.975650072 0.7803069949 0.2031099945
thorax  -3.456259966 0.3304179907 0.8558830023
lowerneck  -4.476650238 10.31830025 -1.954699993
upperneck  3.734679937 14.16699982 -5.843110085
head  2.253969908 6.862760067 -1.031700015
lclavicle  0 -9.442270133e-015 7.951389973e-016
lhumerus  -5.591350079 -9.703260422 78.39089966
lradius  2.714640308e-031 -2.258223203e-031 140.2440033
lwrist  -3.531125038e-031 -0 3.949569941
lhand  -1.496451383e-031 -27.76390076 20.11240005
lfingers  90 7.125020027 -90
lthumb  89.89689403 5.08795885 91.16245106
rclavicle  0 -9.442270133e-015 7.951389973e-016
rhumerus  -34.36520004 28.60429955 -84.6651001
rradius  -1.784050442e-031 3.047295203e-031 120.3470001
rwrist  7.062250077e-031 -0 -2.687920094
rhand  -7.920061211e-032 -33.2840004 9.303460121
rfingers  -90 -7.125020027 -90
rthumb  -92.93752616 -24.25625642 -97.11982154
rfemur  -9.748279572 26.84679985 0.579899013
rtibia  -0 0 54.70690155
rfoot  -4.641129433e-032 -18.00279999 -3.554680109
rtoes  5.373923086 19.29304026 -105.8922705
lfemur  -25.95509911 1.347069979 1.017549992
ltibia  -0 0 56.53939819
lfoot  4.430741613e-032 -4.996290207 -2.348469973
ltoes  -4.250644065 -19.5611806 -102.515957
132
root  3.75206677 38.09977854 2.155419973 -17.32600403 -73.75299835 16.6210022
lowerback  13.43859959 0.3968819976 -1.056789994
upperback  3.9214499 0.2632389963 0.2895730138
thorax  -3.414139986 0.07565709949 0.8600270152
lowerneck  -4.857439995 10.45549965 -2.161050081
upperneck  3.897000074 14.39659977 -6.007400036
head  2.378930092 6.953400135 -1.015050054
lclavicle  0 -9.442270133e-015 7.951389973e-016
lhumerus  -6.051280022 -9.37071991 78.72489929
lradius  2.699841632e-031 -2.275895253e-031 139.8699951
lwrist  -1.059337512e-030 -1.765562519e-031 3.089040041
lhand  -1.496451383e-031 -27.76390076 20.11240005
lfingers  90 7.125020027 -90
lthumb  89.89689403 5.08795885 91.16245106
rclavicle  0 -9.442270133e-015 7.951389973e-016
rhumerus  -34.26110077 28.71500015 -83.9394989
rradius  -1.832380206e-031 3.018480879e-031 121.2600021
rwrist  1.059337512e-030 -3.531125038e-031 -2.754129887
rhand  -7.920061211e-032 -33.2840004 9.303460121
rfingers  -90 -7.125020027 -90
rthumb  -92.93752616 -24.25625642 -97.11982154
rfemur  -8.395210266 26.20229912 1.206709981
rtibia  -0 0 54.50939941
rfoot  -4.657154259e-032 -18.59989929 -4.473939896
rtoes  5.373923086 19.29304026 -105.8922705
lfemur  -26.27269936 0.7008550167 1.512920022
ltibia  -0 0 55.42459869
lfoot  4.425954997e-032 -4.228660107 -4.041570187
ltoes  -4.250644065 -19.5611806 -102.515957
133
root  3.642399855 37.90955431 2.29606666 -15.65899658 -73.31900024 14.64399719
lowerback  13.43239975 0.2239719927 -0.6121169925
upperback  3.791960001 0.09875900298 0.2653520107
thorax  -3.541790009 -0.00338340993 0.6100729704
lowerneck  -5.036940098 10.47780037 -1.879590034
upperneck  4.065629959 14.43540001 -6.133069992
head  2.502779961 6.962590218 -1.078660011
lclavicle  0 -9.442270133e-015 7.951389973e-016
lhumerus  -6.54527998 -9.743940353 79.06009674
lradius  2.681442718e-031 -2.297544121e-031 139.4089966
lwrist  -1.059337512e-030 -0 1.451679945
lhand  -1.496451383e-031 -27.76390076 20.11240005
lfingers  90 7.125020027 -90
lthumb  89.89689403 5.08795885 91.16245106
rclavicle  0 -9.442270133e-015 7.951389973e-016
rhumerus  -34.45589828 28.42340088 -83.38200378
rradius  -1.884780881e-031 2.986041706e-031 122.2600021
rwrist  7.062250077e-031 -3.531125038e-031 -2.627690077
rhand  -7.920061211e-032 -33.2840004 9.303460121
rfingers  -90 -7.125020027 -90
rthumb  -92.93752616 -24.25625642 -97.11982154
rfemur  -7.245550156 25.75900078 1.922709942
rtibia  -0 0 54.36589813
rfoot  -4.684833873e-032 -19.58090019 -5.436200142
rtoes  5.373923086 19.29304026 -105.8922705
lfemur  -26.44820023 0.4124760032 2.139189959
ltibia  -0 0 54.27270126
lfoot  4.420518454e-032 -3.134200096 -5.836410046
ltoes  -4.250644065 -19.5611806 -102.515957
